<?xml version="1.0" encoding="utf-8"?>
<!-- Generator: Adobe Illustrator 16.0.0, SVG Export Plug-In . SVG Version: 6.00 Build 0)  -->
<!DOCTYPE svg PUBLIC "-//W3C//DTD SVG 1.1//EN" "http://www.w3.org/Graphics/SVG/1.1/DTD/svg11.dtd">
<svg version="1.1" id="Layer_1" xmlns="http://www.w3.org/2000/svg" xmlns:xlink="http://www.w3.org/1999/xlink" x="0px" y="0px"
	 width="841.89px" height="595.28px" viewBox="0 0 841.89 595.28" enable-background="new 0 0 841.89 595.28" xml:space="preserve">
<g>
	<path fill-rule="evenodd" clip-rule="evenodd" fill="#232323" d="M48.292,146.68c2.439,0,4.881,0.042,7.319-0.021
		c0.9-0.023,1.416,0.252,1.93,1.015c16.12,23.938,32.268,47.857,48.413,71.778c34.572,51.222,69.145,102.442,103.718,153.663
		c0.243,0.36,0.501,0.712,0.845,1.199c0.244-0.42,0.45-0.735,0.62-1.07c3.568-7.057,7.121-14.123,10.714-21.167
		c0.383-0.75,0.4-1.337,0.057-2.111c-10.636-23.982-21.246-47.977-31.853-71.972c-0.19-0.431-0.415-0.901-0.416-1.353
		c-0.026-7.518-0.019-15.035,0.213-22.653c14.234,25.48,28.468,50.96,42.817,76.647c12.297-24.331,24.496-48.469,36.736-72.688
		c-6.884-5.78-13.733-11.53-20.711-17.389c14.167-8.132,28.223-16.201,42.435-24.36c19.183,38.071,38.344,76.099,57.634,114.383
		c14.326-25.638,28.535-51.066,42.895-76.764c0.069,0.575,0.133,0.86,0.134,1.144c0.005,7.08,0.013,14.159-0.012,21.239
		c-0.002,0.578-0.143,1.195-0.376,1.726c-10.559,23.973-21.131,47.939-31.726,71.896c-0.402,0.908-0.441,1.616,0.035,2.544
		c3.515,6.86,6.958,13.757,10.426,20.642c0.195,0.388,0.405,0.769,0.703,1.33c0.336-0.466,0.611-0.826,0.864-1.201
		c50.672-75.077,101.345-150.153,151.995-225.245c0.601-0.891,1.201-1.281,2.294-1.238c2.311,0.091,4.627,0.027,7.096,0.027
		c0,2.221-0.12,4.374,0.032,6.507c0.169,2.377-0.532,4.358-1.732,6.4c-46.464,79.059-92.882,158.146-139.287,237.238
		c-0.474,0.809-0.955,1.156-1.939,1.153c-12.999-0.038-25.999-0.033-38.998-0.008c-0.812,0.001-1.281-0.229-1.703-0.945
		c-1.965-3.337-3.996-6.636-6.074-10.064c-0.212,0.409-0.384,0.701-0.52,1.008c-10.253,23.234-20.504,46.471-30.75,69.708
		c-0.14,0.318-0.206,0.669-0.307,1.004c-13.92,0-27.84,0-41.76,0c-0.172-0.359-0.354-0.714-0.514-1.078
		c-10.232-23.11-20.462-46.222-30.694-69.333c-0.198-0.448-0.416-0.887-0.704-1.499c-2.154,3.554-4.207,6.883-6.188,10.254
		c-0.426,0.726-0.895,0.947-1.705,0.945c-12.798-0.023-25.597-0.042-38.395,0.02c-1.37,0.007-2.095-0.379-2.794-1.571
		c-46.271-78.885-92.577-157.75-138.884-236.614c-0.604-1.028-1.254-2.03-1.883-3.044C48.292,153.4,48.292,150.04,48.292,146.68z
		 M290.656,434.451c0.318-0.51,0.537-0.828,0.724-1.164c12.626-22.594,25.247-45.19,37.888-67.775
		c0.393-0.701,0.428-1.214-0.007-1.929c-12.646-20.832-25.266-41.68-37.893-62.522c-0.195-0.322-0.425-0.624-0.694-1.017
		c-0.274,0.421-0.475,0.713-0.658,1.015c-12.621,20.848-25.235,41.698-37.876,62.533c-0.438,0.721-0.398,1.228-0.003,1.933
		c9.564,17.075,19.105,34.163,28.65,51.249C284.037,422.596,287.287,428.418,290.656,434.451z"/>
</g>
<g>
	<path fill="#232323" d="M461.872,391.192c1.112,0,1.986,0.381,2.622,1.141c0.636,0.762,0.887,1.567,0.755,2.419
		c-0.133,0.853-0.809,1.339-2.026,1.46c-2.542,0.184-5.111,0.396-7.706,0.64c-9.216,1.095-18.326,1.187-27.329,0.274
		c-3.126-0.365-5.589-1.43-7.389-3.195c-2.014,1.583-4.198,3.043-6.555,4.381c-2.357,1.34-4.516,2.04-6.475,2.1
		c-1.959,0.062-3.337-1.004-4.132-3.194c-0.528-2.251-0.012-4.336,1.55-6.253s3.11-3.423,4.647-4.518
		c4.501-3.226,9.454-4.686,14.856-4.383c0.953,0.063,1.641,0.396,2.065,1.005c0.424,0.608,0.568,1.278,0.438,2.008
		c-0.133,0.73-0.517,1.31-1.152,1.734c0.528,0.73,0.503,1.613-0.079,2.647c-0.371,0.73,0.158,1.293,1.589,1.688
		c1.43,0.396,3.229,0.671,5.402,0.821c2.171,0.152,4.157,0.229,5.958,0.229c1.8,0,2.86,0,3.178,0
		C448.71,392.014,455.305,391.681,461.872,391.192z M413.728,390.37c-0.371,0.244-0.794,0.564-1.271,0.959
		c-0.478,0.396-0.862,0.762-1.152,1.096c-0.292,0.335-0.357,0.563-0.198,0.684c0.158,0.123,0.688,0.032,1.589-0.273
		c2.594-1.154,5.057-2.921,7.388-5.294C417.859,387.906,415.74,388.851,413.728,390.37z"/>
	<path fill="#232323" d="M547.039,394.478c1.112-0.059,1.986,0.307,2.622,1.096c0.636,0.792,0.886,1.598,0.755,2.42
		c-0.133,0.82-0.809,1.322-2.026,1.506c-16.578,1.277-33.183,2.008-49.813,2.19c-1.325,0-2.888,0.091-4.688,0.274
		c-2.809,0.364-5.668,0.502-8.58,0.41c-2.914-0.092-5.297-0.867-7.15-2.328c-0.953-0.912-1.497-1.885-1.629-2.92
		c-0.133-1.035-0.093-2.13,0.119-3.287c-4.556,2.436-8.978,5.234-13.268,8.398c-0.53,0.365-1.18,0.547-1.946,0.547
		c-0.768,0-1.442-0.212-2.026-0.639c-0.582-0.425-0.847-1.096-0.794-2.008c0.425-4.93,1.51-9.676,3.257-14.24
		c0.477-0.973,1.218-1.52,2.225-1.643c1.006-0.121,1.894,0.123,2.662,0.73c0.767,0.609,0.965,1.461,0.596,2.556
		c-0.849,2.252-1.537,4.534-2.066,6.847c4.502-2.922,9.163-5.508,13.983-7.76c0.477-0.182,1.059-0.229,1.747-0.137
		s1.271,0.352,1.748,0.775c0.477,0.427,0.715,1.036,0.715,1.826c-0.106,0.609-0.238,1.277-0.396,2.008
		c-0.213,0.975-0.357,1.949-0.438,2.922c-0.079,0.974,0.146,1.795,0.676,2.464c0.264,0.244,0.794,0.396,1.589,0.456
		c0.794,0.062,1.681,0.062,2.661,0c0.979-0.06,1.867-0.15,2.661-0.273c0.741-0.061,1.244-0.092,1.51-0.092
		c5.613,0,11.229-0.06,16.843-0.182C521.404,396.091,534.221,395.452,547.039,394.478z"/>
	<path fill="#232323" d="M587.716,353.493c0.741-0.06,1.482,0.107,2.225,0.502c0.741,0.396,1.138,1.111,1.191,2.146
		c-0.159,2.8-0.888,5.401-2.185,7.804c-1.299,2.405-2.769,4.672-4.409,6.801c-0.266,0.427-0.557,0.854-0.874,1.278
		c-3.654,5.111-7.627,9.919-11.917,14.423c-1.431,1.46-2.888,2.951-4.37,4.473c-0.053,0.122-0.133,0.243-0.238,0.364
		c-0.053,0.183-0.106,0.335-0.158,0.456c-5.456,11.685-9.534,23.978-12.235,36.878c-0.266,0.973-0.874,1.521-1.827,1.644
		c-0.953,0.121-1.814-0.107-2.582-0.686c-0.769-0.578-1.072-1.445-0.914-2.602c2.013-9.553,4.768-18.771,8.263-27.658
		c-4.607,3.469-9.587,5.295-14.936,5.478c-1.006-0.06-1.761-0.471-2.265-1.232c-0.503-0.761-0.489-1.657,0.04-2.692
		c4.555-8.093,10.989-12.84,19.306-14.24c1.323-0.121,2.276,0.336,2.86,1.369c0.794-1.703,1.641-3.377,2.542-5.02
		c3.654-6.877,7.732-13.387,12.234-19.535c0.477-0.668,0.979-1.369,1.51-2.099c1.164-1.825,2.463-3.515,3.893-5.066
		C584.3,354.726,585.914,353.799,587.716,353.493z M558.638,392.104c-3.92,1.157-7.229,3.318-9.931,6.481
		C552.149,397.126,555.46,394.966,558.638,392.104z"/>
	<path fill="#232323" d="M629.505,394.388c1.218,0,2.013,0.426,2.384,1.277c0.369,0.853,0.33,1.72-0.119,2.602
		c-0.451,0.883-1.285,1.354-2.503,1.414c-7.15,0.184-13.625,0.306-19.425,0.365c-5.8,0.063-12.354,0.063-19.663,0
		c-1.589,0.063-3.668-0.137-6.236-0.593c-2.569-0.456-4.78-1.354-6.634-2.692c-1.854-1.338-2.542-3.347-2.065-6.025
		c0.848-2.556,2.793-4.883,5.839-6.982c3.045-2.1,5.813-2.967,8.303-2.602c2.065,0.548,3.189,1.629,3.376,3.24
		c0.185,1.613-0.146,3.408-0.993,5.386c-0.848,1.978-1.775,3.788-2.78,5.431c2.012-0.06,4.024-0.091,6.038-0.091
		c1.694,0,3.098,0,4.21,0C608.134,395.117,618.224,394.874,629.505,394.388z M583.108,389.731c-0.371,1.643-0.266,2.8,0.317,3.469
		c1.006-1.461,1.88-3.042,2.622-4.746c-0.266-0.061-0.504-0.121-0.715-0.184c-0.107,0-0.213,0-0.318,0
		c-0.371,0.244-0.742,0.519-1.112,0.822C583.637,389.275,583.372,389.489,583.108,389.731z"/>
	<path fill="#232323" d="M659.614,381.79c0.477,0.73,0.583,1.553,0.318,2.465c-0.425,1.156-1.325,1.857-2.701,2.1
		c-4.715,0.67-9.283,1.902-13.705,3.697c-4.423,1.795-8.302,4.975-11.639,9.538c-0.371,0.608-0.901,1.05-1.589,1.323
		c-0.689,0.274-1.351,0.411-1.986,0.411c-0.688,0-1.271-0.151-1.748-0.456c-0.264-0.121-0.463-0.38-0.596-0.776
		c-0.132-0.396-0.065-0.958,0.199-1.688l6.196-14.514c0.37-0.852,0.887-1.461,1.55-1.826c0.661-0.364,1.337-0.577,2.025-0.639
		c1.164-0.06,2.013,0.274,2.542,1.004c0.105,0.184,0.172,0.427,0.199,0.73c0.025,0.306-0.067,0.701-0.278,1.188l-1.351,3.194
		c6.832-3.711,13.506-5.933,20.021-6.663C658.185,380.694,659.031,381,659.614,381.79z"/>
</g>
<g>
	<path fill="#232323" d="M372.861,451.712c1.165,0,1.947,0.396,2.344,1.187c0.397,0.792,0.384,1.613-0.04,2.465
		c-0.425,0.853-1.245,1.339-2.463,1.461c-8.475,0.487-16.949,0.729-25.423,0.729c-0.742,0-1.51,0.031-2.304,0.092
		c-3.39,0.122-6.806-0.121-10.249-0.73c-0.318,0.244-0.609,0.427-0.874,0.548c-1.483,0.974-3.285,1.688-5.402,2.145
		c-2.119,0.457-3.893-0.075-5.323-1.597c-0.954-1.461-1.178-3.088-0.675-4.884c0.504-1.794,1.152-3.453,1.946-4.975
		c0.159-0.242,0.292-0.517,0.397-0.821c0.266-0.426,0.583-0.791,0.953-1.096c1.377-3.163,4.131-5.051,8.263-5.659
		c1.907-0.183,3.641,0.183,5.204,1.095c1.562,0.913,2.423,2.526,2.582,4.838c0,2.131-0.689,4.048-2.065,5.751
		c1.482,0.123,2.965,0.183,4.449,0.183c0.159,0,0.318,0,0.477,0C354.033,452.504,363.434,452.26,372.861,451.712z M333.297,449.521
		c-1.219,0.365-1.735,0.7-1.549,1.004c0.185,0.306,0.727,0.579,1.628,0.821c0.954-0.729,1.51-1.292,1.668-1.688
		C335.204,449.264,334.621,449.218,333.297,449.521z"/>
	<path fill="#232323" d="M416.795,448.883c1.271,0.364,1.933,0.974,1.986,1.825c0.053,0.853-0.277,1.643-0.992,2.373
		s-1.629,1.004-2.741,0.821c-10.805-1.52-21.266,1.857-31.381,10.133c-5.033,7.667-10.62,14.514-16.763,20.538
		c-0.583,0.486-1.337,0.669-2.264,0.548c-0.926-0.123-1.681-0.473-2.265-1.05c-0.582-0.579-0.662-1.355-0.238-2.328
		c4.079-8.153,9.745-15.212,17.002-21.177c1.271-1.826,2.515-3.62,3.734-5.386c-3.072,2.19-6.383,3.804-9.931,4.838
		c-0.953,0.244-1.827,0.031-2.622-0.639c-0.794-0.669-1.059-1.582-0.794-2.738c2.118-7.668,6.408-12.962,12.87-15.883
		c2.171-0.79,4.25-0.852,6.237-0.183c1.986,0.67,3.456,2.1,4.409,4.29c0.794,0.244,1.377,0.685,1.748,1.323
		c0.37,0.639,0.238,1.415-0.397,2.328c-1.007,1.4-2.013,2.8-3.019,4.198C399.794,448.64,408.268,447.362,416.795,448.883z
		 M387.162,446.144c-0.794-0.79-1.841-0.821-3.138-0.091c-1.298,0.73-2.502,1.659-3.615,2.784c-1.112,1.127-1.827,1.933-2.145,2.419
		c-0.212,0.244-0.397,0.518-0.556,0.821c-0.054,0.062-0.107,0.123-0.159,0.183c1.377-0.79,2.728-1.673,4.052-2.647
		C383.401,448.396,385.255,447.239,387.162,446.144z"/>
	<path fill="#232323" d="M469.23,453.081c1.218,0,2.013,0.427,2.384,1.278c0.369,0.853,0.33,1.72-0.119,2.602
		c-0.451,0.883-1.285,1.354-2.503,1.415c-7.15,0.183-13.625,0.305-19.425,0.364c-5.8,0.062-12.354,0.062-19.663,0
		c-1.589,0.062-3.668-0.137-6.236-0.593c-2.569-0.456-4.78-1.354-6.634-2.692c-1.854-1.338-2.542-3.347-2.066-6.025
		c0.848-2.556,2.793-4.883,5.839-6.982c3.045-2.1,5.813-2.967,8.303-2.602c2.065,0.548,3.189,1.629,3.376,3.24
		c0.185,1.613-0.146,3.409-0.993,5.386c-0.848,1.979-1.775,3.788-2.78,5.431c2.012-0.06,4.024-0.091,6.038-0.091
		c1.694,0,3.098,0,4.21,0C447.859,453.812,457.949,453.569,469.23,453.081z M422.834,448.426c-0.371,1.644-0.266,2.8,0.317,3.469
		c1.006-1.46,1.88-3.042,2.622-4.746c-0.266-0.061-0.504-0.121-0.715-0.183c-0.107,0-0.213,0-0.318,0
		c-0.371,0.243-0.742,0.518-1.112,0.821C423.362,447.97,423.098,448.184,422.834,448.426z"/>
	<path fill="#232323" d="M505.219,408.172c1.431,3.833,0.741,8.397-2.065,13.691c-2.808,5.295-6.343,10.438-10.605,15.427
		c-4.265,4.99-7.854,8.945-10.766,11.866c-0.317,0.365-0.636,0.7-0.953,1.004c-0.425,0.427-0.874,0.913-1.351,1.461
		c-2.119,2.556-4.556,4.808-7.31,6.755c-2.489,6.39-4.581,12.87-6.275,19.442c-0.37,1.155-1.073,1.901-2.105,2.236
		c-1.033,0.334-1.959,0.273-2.781-0.183c-0.82-0.456-1.124-1.264-0.913-2.419c1.643-6.328,3.654-12.565,6.038-18.713
		c-0.9-0.79-1.337-1.779-1.312-2.966c0.027-1.187,0.57-2.328,1.629-3.424c0.795-0.668,1.668-0.973,2.622-0.912
		c3.865-9.006,8.553-17.617,14.062-25.833c0.265-0.364,0.582-0.821,0.954-1.369c1.535-2.494,3.68-5.598,6.435-9.311
		c2.754-3.711,5.508-6.511,8.263-8.397C501.537,404.643,503.683,405.19,505.219,408.172z M490.362,430.535
		c0.212-0.304,0.94-1.354,2.186-3.149c1.243-1.794,2.582-3.848,4.012-6.161c1.43-2.313,2.568-4.382,3.416-6.207
		c0.847-1.826,1.059-2.951,0.636-3.378c-0.159-0.06-0.609,0.352-1.351,1.232c-0.742,0.883-1.603,1.948-2.582,3.195
		c-0.98,1.248-1.881,2.419-2.701,3.514c-0.822,1.096-1.364,1.826-1.629,2.191l-0.079,0.091
		c-5.562,7.547-10.382,15.488-14.459,23.824c0.105-0.121,0.238-0.273,0.396-0.456c0.795-0.852,1.589-1.703,2.384-2.556
		C483.979,438.781,487.237,434.734,490.362,430.535z"/>
</g>
</svg>
